<?xml version="1.0" encoding="utf-8"?>
<!-- Generator: Adobe Illustrator 24.2.0, SVG Export Plug-In . SVG Version: 6.00 Build 0)  -->
<svg version="1.1" id="Слой_1" xmlns="http://www.w3.org/2000/svg" xmlns:xlink="http://www.w3.org/1999/xlink" x="0px" y="0px"
	 viewBox="0 0 640 640" style="enable-background:new 0 0 640 640;" xml:space="preserve">
<style type="text/css">
	.st0{fill:#FF8110;}
</style>
<rect x="0.39" class="st0" width="639.61" height="639.61"/>
<polygon points="116.7,484.61 71.21,484.61 71.21,166.61 116.7,166.61 116.7,212.98 162.19,212.1 162.19,257.59 207.24,257.59 
	207.24,212.98 252.74,212.98 252.74,166.61 297.35,166.61 297.35,484.61 251.86,484.61 251.86,257.59 207.24,257.59 207.24,303.08 
	161.31,303.08 162.19,257.59 116.7,257.16 "/>
<polygon points="524.38,258.02 524.38,303.52 388.34,303.52 388.34,439.13 524.38,439.13 524.38,303.52 568.99,303.52 
	568.99,439.13 524.81,439.13 524.81,484.62 342.84,484.62 342.84,166.61 523.93,166.61 523.93,212.98 388.34,212.98 388.34,258.02 
	523.93,258.02 523.93,212.98 568.99,212.98 568.99,258.02 "/>
</svg>
